{"title":"Black Sails S01E06 x264 AAC [GWC].mp4","uid":9686369,"size":137481215,"categoryP":"video","categoryS":"tv_shows","magnet":"?xt=urn:btih:c233720c95bc56d46dc3dbf0406f874ce9b0b60f&amp;dn=Black+Sails+S01E06+x264+AAC+%5BGWC%5D.mp4&amp;tr=udp%3A%2F%2Ftracker.openbittorrent.com%3A80&amp;tr=udp%3A%2F%2Fopen.demonii.com%3A1337&amp;tr=udp%3A%2F%2Ftracker.coppersurfer.tk%3A6969&amp;tr=udp%3A%2F%2Fexodus.desync.com%3A6969","seeders":2,"leechers":0,"uploader":"canc232","files":1,"time":1393775725,"description":"Black Sails S01E06 x264 AAC [GWC] \n\nSTORYLINE :\nCaptain Flint and his pirates, twenty years prior to Robert Louis Stevenson's classic &quot;Treasure Island&quot;. \n\n\nSCREENS : &lt;a href=&quot;\nhttp://i.imgur.com/YMHjU5L.jpg&quot; rel=&quot;nofollow&quot; target=&quot;_NEW&quot;&gt;\nhttp://i.imgur.com/YMHjU5L.jpg&lt;/a&gt; &lt;a href=&quot;\nhttp://i.imgur.com/XAiqQhx.jpg&quot; rel=&quot;nofollow&quot; target=&quot;_NEW&quot;&gt;\nhttp://i.imgur.com/XAiqQhx.jpg&lt;/a&gt; &lt;a href=&quot;\nhttp://i.imgur.com/fVZ4GvT.jpg&quot; rel=&quot;nofollow&quot; target=&quot;_NEW&quot;&gt;\nhttp://i.imgur.com/fVZ4GvT.jpg&lt;/a&gt;\n\nMost of the episode is in the dark and so are the screens\n:))\n\n\nMEDIA INFO :\nGeneral \nComplete name : F:VideoTVBlack SailsBlack Sails S01E06 x264 AAC [GWC].mp4 \nFormat : MPEG-4 \nFormat profile : Base Media \nCodec ID : isom \nFile size : 131 MiB \nDuration : 55mn 0s \nOverall bit rate mode : Variable \nOverall bit rate : 333 Kbps \nEncoded date : UTC 2014-03-02 13:10:32 \nTagged date : UTC 2014-03-02 13:10:32 \n\nVideo \nFormat : AVC \nFormat profile : &lt;a class=&quot;__cf_email__&quot; href=&quot;/cdn-cgi/l/email-protection&quot; data-cfemail=&quot;81c9e8e6e9c1cdb2afb1&quot;&gt;[email&amp;#160;protected]&lt;/a&gt;&lt;script cf-hash='f9e31' type=&quot;text/javascript&quot;&gt;\n/* &lt;![CDATA[ */!function(){try{var t=&quot;currentScript&quot;in document?document.currentScript:function(){for(var t=document.getElementsByTagName(&quot;script&quot;),e=t.length;e--;)if(t[e].getAttribute(&quot;cf-hash&quot;))return t[e]}();if(t&amp;&amp;t.previousSibling){var e,r,n,i,c=t.previousSibling,a=c.getAttribute(&quot;data-cfemail&quot;);if(a){for(e=&quot;&quot;,r=parseInt(a.substr(0,2),16),n=2;a.length-n;n+=2)i=parseInt(a.substr(n,2),16)^r,e+=String.fromCharCode(i);e=document.createTextNode(e),c.parentNode.replaceChild(e,c)}}}catch(u){}}();/* ]]&gt; */&lt;/script&gt; \nFormat settings, CABAC : Yes \nFormat settings, ReFrames : 4 frames \nDuration : 55mn 0s \nBit rate : 270 Kbps \nMaximum bit rate : 1 480 Kbps \nWidth : 720 pixels \nHeight : 404 pixels \nDisplay aspect ratio : 16:9 \nFrame rate mode : Constant \nFrame rate : 23.976 fps \nStream size : 106 MiB (81%) \nTitle : Black Sails S01E06 x264 AAC [GWC] \nWriting library : x264 core  \n\nAudio \nFormat : AAC \nFormat profile : HE-AAC / LC \nBit rate mode : Variable \nChannel(s) : 2 channels \nSampling rate : 48.0 KHz / 24.0 KHz \nStream size : 23.6 MiB (18%) \nLanguage : English \n\n","torrent":{"xt":"urn:btih:c233720c95bc56d46dc3dbf0406f874ce9b0b60f","amp;dn":"Black+Sails+S01E06+x264+AAC+%5BGWC%5D.mp4","amp;tr":["udp%3A%2F%2Ftracker.openbittorrent.com%3A80","udp%3A%2F%2Fopen.demonii.com%3A1337","udp%3A%2F%2Ftracker.coppersurfer.tk%3A6969","udp%3A%2F%2Fexodus.desync.com%3A6969"],"infoHash":"c233720c95bc56d46dc3dbf0406f874ce9b0b60f","infoHashBuffer":{"type":"Buffer","data":[194,51,114,12,149,188,86,212,109,195,219,240,64,111,135,76,233,176,182,15]},"announce":[],"urlList":[]}}